<?xml version="1.0" encoding="UTF-8" standalone="no"?>
<svg
   version="1.0"
   width="512.000000pt"
   height="512.000000pt"
   viewBox="0 0 512.000000 512.000000"
   preserveAspectRatio="xMidYMid meet"
   id="svg10"
   sodipodi:docname="barco-de-papel.svg"
   inkscape:version="1.1.1 (3bf5ae0d25, 2021-09-20)"
   xmlns:inkscape="http://www.inkscape.org/namespaces/inkscape"
   xmlns:sodipodi="http://sodipodi.sourceforge.net/DTD/sodipodi-0.dtd"
   xmlns="http://www.w3.org/2000/svg"
   xmlns:svg="http://www.w3.org/2000/svg">
  <defs
     id="defs14" />
  <sodipodi:namedview
     id="namedview12"
     pagecolor="#ffffff"
     bordercolor="#666666"
     borderopacity="1.0"
     inkscape:pageshadow="2"
     inkscape:pageopacity="0.0"
     inkscape:pagecheckerboard="0"
     inkscape:document-units="pt"
     showgrid="false"
     inkscape:zoom="1.2070313"
     inkscape:cx="271.32685"
     inkscape:cy="332.63429"
     inkscape:window-width="1920"
     inkscape:window-height="1009"
     inkscape:window-x="1912"
     inkscape:window-y="-8"
     inkscape:window-maximized="1"
     inkscape:current-layer="g8" />
  <metadata
     id="metadata2">
Created by potrace 1.16, written by Peter Selinger 2001-2019
</metadata>
  <g
     transform="matrix(0.1,0,0,-0.1,1.2427184,510.75728)"
     fill="#000000"
     stroke="none"
     id="g8">
    <path
       d="m 2499,4447 c -9,-7 -326,-449 -704,-982 -379,-534 -689,-971 -690,-973 -1,-1 -220,103 -485,233 C 89,2983 80,2987 26,2934 6,2914 0,2897 0,2866 0,2841 122,2435 333,1767 592,942 670,703 689,684 l 24,-24 c 221.20939,75.98239 351.2812,179.20651 722,0 403.1192,-174.05629 540.0716,-62.93386 722,0 l 27,26 c 37,38 37,110 0,148 l -27,26 -471,2 -472,3 1810,892 c 995,491 1811,891 1813,889 2,-2 -122,-403 -276,-892 l -279,-889 -660,-3 -659,-2 -27,-26 c -37,-38 -37,-110 0,-148 l 27,-26 c 243.9207,203.6282 572.5626,84.38101 722,0 259.9745,-144.80895 494.9539,-102.154 722,0 l 24,24 c 19,19 97,258 357,1083 210,668 332,1074 332,1099 0,31 -6,48 -26,68 -54,53 -63,49 -588,-209 -262,-129 -480,-235 -484,-235 -4,1 -308,427 -677,948 -368,520 -685,963 -704,984 -30,34 -38,38 -80,38 -25,0 -53,-6 -62,-13 z m -42,-2614 c -3,-3 -1146,552 -1155,561 -2,2 257,371 575,819 l 578,815 3,-1096 c 1,-602 1,-1097 -1,-1099 z m 801,1360 c 309,-436 562,-796 562,-800 0,-6 -1111,-558 -1150,-571 -7,-2 -10,389 -10,1104 0,1073 1,1106 18,1083 10,-13 271,-381 580,-816 z M 1314,2150 c 558,-272 1013,-496 1012,-498 -7,-6 -1500,-742 -1502,-739 -3,3 -544,1726 -544,1733 0,9 -50,33 1034,-496 z"
       id="path4"
       sodipodi:nodetypes="sccccscscccccccccscccccccccscscccccsssscccscscscccccsc" />
    <path
       d="m 2486,834 c -21,-21 -26,-36 -26,-74 0,-66 34,-100 100,-100 66,0 100,34 100,100 0,38 -5,53 -26,74 -21,21 -36,26 -74,26 -38,0 -53,-5 -74,-26 z"
       id="path6" />
  </g>
</svg>
